<?xml version="1.0" standalone="no"?>
<!DOCTYPE svg PUBLIC "-//W3C//DTD SVG 20010904//EN"
 "http://www.w3.org/TR/2001/REC-SVG-20010904/DTD/svg10.dtd">
<svg version="1.0" xmlns="http://www.w3.org/2000/svg"
 width="271.000000pt" height="270.000000pt" viewBox="0 0 271.000000 270.000000"
 preserveAspectRatio="xMidYMid meet">
<metadata>
Created by potrace 1.14, written by Peter Selinger 2001-2017
</metadata>
<g transform="translate(0.000000,270.000000) scale(0.100000,-0.100000)"
fill="#000000" stroke="none">
<path d="M1455 2690 c-5 -5 -23 -21 -39 -35 -17 -14 -31 -34 -32 -43 -2 -9 -8
-18 -13 -20 -6 -2 -11 -11 -11 -20 0 -17 -73 -48 -89 -38 -4 3 -18 -4 -30 -15
-12 -12 -24 -19 -25 -18 -2 2 -8 13 -14 24 -10 19 -11 18 -23 -8 -12 -26 -39
-38 -39 -16 0 6 -9 8 -22 3 -13 -4 -29 -7 -35 -7 -7 0 -13 -4 -13 -9 0 -5 -13
-14 -30 -19 -16 -6 -29 -14 -29 -17 3 -20 -2 -32 -11 -27 -6 4 -20 -5 -31 -19
-11 -14 -30 -26 -42 -26 -18 0 -19 -2 -7 -11 11 -8 7 -9 -19 -6 -31 4 -32 3
-15 -10 16 -12 15 -13 -16 -7 -19 4 -37 10 -40 14 -7 11 -61 9 -54 -1 3 -5 -6
-13 -19 -18 -14 -6 -36 -21 -49 -34 -32 -33 -55 -40 -67 -19 -8 15 -11 14 -20
-9 -11 -30 -64 -45 -86 -23 -20 21 -101 26 -120 8 -11 -12 -15 -12 -15 -2 0 7
-7 0 -15 -16 -12 -23 -13 -31 -3 -37 9 -6 4 -14 -15 -30 -16 -11 -26 -24 -23
-27 3 -2 13 1 22 9 16 13 17 12 10 -11 -5 -14 -8 -35 -8 -47 0 -13 -5 -20 -10
-17 -6 4 -9 1 -6 -7 6 -17 -15 -39 -36 -39 -10 0 -15 -8 -15 -22 0 -13 -2 -33
-6 -44 -5 -15 -2 -23 9 -27 9 -4 16 -2 16 3 0 6 5 10 10 10 6 0 10 -7 10 -15
0 -8 -4 -15 -10 -15 -5 0 -10 -4 -10 -9 0 -5 9 -7 20 -4 11 3 20 11 20 18 0 7
8 30 17 51 9 22 16 43 15 48 -2 4 2 13 7 20 13 15 17 98 6 116 -19 31 -13 50
16 50 15 0 29 -6 32 -12 3 -10 7 -10 20 0 21 18 67 8 97 -20 l22 -21 36 20
c21 11 43 18 51 15 10 -3 13 1 9 16 -5 18 0 23 28 28 40 7 51 19 28 32 -13 7
-10 11 16 22 26 11 40 10 88 -3 37 -10 62 -12 73 -6 19 10 49 2 49 -12 0 -5
-18 -12 -39 -15 -27 -4 -43 -14 -52 -30 -14 -27 -34 -27 -34 -1 0 22 -20 21
-21 -1 -1 -9 -2 -24 -3 -33 -1 -21 -53 -43 -85 -37 -16 3 -27 0 -30 -9 -9 -22
-8 -23 15 -23 24 0 19 -35 -10 -60 -9 -8 -23 -29 -30 -47 -17 -43 -39 -61 -47
-40 -3 9 -12 13 -20 10 -10 -4 -14 3 -13 28 2 58 13 84 36 82 23 -3 33 7 51
50 l12 28 -31 -18 c-17 -10 -54 -45 -82 -78 -29 -33 -56 -62 -61 -64 -5 -2
-17 -12 -27 -22 -11 -11 -19 -17 -19 -14 0 11 62 108 85 133 34 36 32 39 -20
37 -54 -1 -95 -34 -94 -74 0 -14 3 -20 6 -13 9 24 23 12 17 -15 -3 -16 -7 -38
-8 -50 0 -11 -5 -19 -10 -15 -5 3 -7 -5 -4 -16 4 -12 2 -22 -2 -22 -4 0 -6 -9
-3 -20 3 -11 9 -20 13 -20 16 0 40 12 36 19 -2 3 12 13 31 23 l35 16 -7 -26
c-4 -15 -11 -29 -16 -30 -5 -2 -7 -8 -4 -13 3 -4 -5 -11 -19 -15 -13 -3 -26
-14 -29 -23 -2 -10 -18 -24 -34 -31 -17 -8 -43 -33 -59 -57 -16 -23 -32 -43
-36 -43 -5 0 -8 -4 -8 -9 0 -5 10 -7 21 -4 19 5 20 4 10 -15 -13 -25 -15 -75
-2 -67 5 3 17 29 25 58 8 28 29 68 45 87 l30 35 -6 -34 c-6 -35 -6 -35 14 -15
26 25 34 49 20 63 -6 6 -7 14 -2 18 4 5 10 2 12 -4 3 -7 12 -13 20 -13 11 0
13 -4 5 -12 -5 -7 -13 -40 -16 -73 -4 -33 -10 -75 -13 -92 -3 -21 -1 -33 6
-33 6 0 11 9 11 19 0 11 4 22 9 25 12 8 20 55 10 58 -5 2 -3 22 3 45 10 43 31
52 21 10 -5 -20 -2 -19 21 8 14 17 25 33 26 38 0 4 9 7 20 7 11 0 25 9 32 20
14 21 38 27 38 9 0 -14 -20 -50 -37 -67 -14 -14 -18 -36 -5 -30 4 2 24 9 44
17 42 17 49 34 41 101 -3 27 -1 56 6 68 10 19 9 22 -8 22 -46 0 -25 131 23
144 33 8 46 -22 21 -48 -8 -8 -15 -24 -15 -35 0 -11 -5 -23 -10 -26 -6 -4 -8
-11 -4 -16 3 -5 9 -7 13 -4 35 21 32 -181 -3 -209 -8 -6 -16 -35 -19 -64 -2
-31 -1 -48 4 -40 15 22 10 -63 -6 -116 -8 -27 -15 -55 -15 -63 0 -22 19 -15
34 15 l15 27 1 -30 c0 -23 3 -27 10 -15 17 26 12 -61 -5 -94 -9 -16 -13 -31
-11 -33 8 -8 26 8 26 23 0 8 4 14 9 14 12 0 21 -64 10 -68 -5 -2 -9 -13 -9
-25 0 -21 -4 -22 -77 -20 -45 2 -82 -2 -90 -8 -7 -6 -13 -8 -13 -4 0 4 -11 0
-24 -9 -14 -9 -33 -13 -42 -9 -12 4 -15 3 -10 -5 5 -8 -1 -12 -18 -12 -23 0
-26 -4 -26 -35 0 -28 -3 -33 -17 -28 -9 4 -14 2 -11 -3 12 -19 -64 -75 -80
-60 -3 3 -10 -1 -17 -10 -10 -14 -14 -13 -35 9 -19 20 -31 24 -57 20 -19 -3
-33 -1 -33 5 0 26 -35 21 -61 -8 -25 -27 -29 -28 -38 -13 -10 17 -10 17 -11
-1 0 -14 -3 -16 -13 -7 -8 6 -17 8 -20 5 -3 -3 -26 2 -51 11 -58 22 -76 15
-76 -30 0 -25 4 -34 12 -29 19 12 67 12 83 0 16 -12 26 -128 13 -142 -16 -15
-38 7 -38 38 l-1 33 -17 -28 c-9 -15 -25 -30 -34 -33 -11 -3 -18 -15 -18 -30
0 -20 5 -24 28 -24 21 0 24 -2 12 -10 -22 -14 5 -13 32 1 11 6 18 7 15 2 -3
-5 -24 -18 -47 -28 -32 -15 -40 -23 -40 -45 0 -23 5 -29 30 -33 38 -8 38 -22
0 -39 -26 -11 -30 -18 -30 -51 0 -34 2 -37 19 -28 20 11 71 68 71 80 0 4 15
15 33 25 17 11 55 36 83 57 28 21 70 46 95 54 24 9 69 31 99 49 30 18 66 37
79 41 49 15 101 111 101 188 0 35 15 43 105 56 44 6 113 19 153 28 l72 16 0
84 c0 70 -3 88 -19 101 -27 25 -49 95 -61 197 -13 103 -6 160 21 179 10 7 21
26 23 42 2 16 7 43 10 59 l7 30 -21 -27 c-31 -40 -46 -34 -21 8 13 22 19 44
15 59 -3 13 0 41 7 62 7 21 14 54 15 73 2 55 8 68 42 96 18 15 32 31 32 37 0
5 9 19 20 31 86 90 116 127 114 140 -1 9 2 16 7 16 5 0 9 -3 9 -7 0 -5 12 -8
28 -8 15 0 39 -4 55 -8 23 -6 27 -4 27 12 0 21 31 19 59 -3 11 -8 13 -8 8 1
-5 8 1 15 18 19 16 4 25 13 25 25 0 10 5 19 11 19 6 0 9 -9 6 -20 -6 -23 3
-26 96 -34 32 -2 64 -10 71 -15 7 -6 27 -13 44 -15 30 -3 48 -13 80 -44 8 -7
18 -10 23 -7 5 4 9 1 9 -4 0 -6 9 -11 21 -11 15 0 19 4 14 19 -3 11 -1 22 5
26 15 9 2 25 -22 25 -13 0 -18 5 -15 14 3 8 -2 24 -12 35 l-17 20 -33 -20
c-18 -11 -36 -17 -39 -14 -8 8 19 55 39 68 25 15 69 0 69 -23 0 -17 5 -19 25
-14 24 6 25 4 18 -27 -5 -28 -4 -31 11 -26 10 4 26 7 37 7 12 0 24 12 34 33
12 27 13 28 9 6 -7 -32 21 -43 66 -26 32 12 47 6 34 -15 -5 -7 -7 -23 -5 -36
1 -12 -4 -25 -12 -28 -15 -5 -26 -29 -32 -73 -6 -34 -13 -37 -20 -8 -4 14 -2
49 4 78 6 29 9 54 6 57 -11 12 -34 -36 -40 -85 -7 -61 -29 -72 -39 -19 -9 47
-32 65 -40 32 -4 -18 1 -32 22 -54 15 -16 34 -40 43 -52 8 -13 23 -23 32 -23
20 0 21 -10 7 -38 -8 -14 -6 -25 6 -43 8 -14 13 -30 9 -35 -3 -6 2 -36 11 -68
13 -44 16 -89 14 -188 -2 -71 -2 -149 -1 -173 1 -26 -7 -62 -20 -90 -35 -79
-59 -153 -79 -251 -23 -111 -24 -119 -8 -103 7 7 26 12 44 12 17 0 45 5 63 11
51 18 99 4 118 -35 17 -36 39 -42 178 -46 77 -2 119 -42 83 -78 -9 -9 -7 -13
8 -18 10 -4 37 -19 59 -33 54 -36 102 -54 150 -56 22 -1 84 -5 138 -10 l97 -8
0 63 c0 37 -7 76 -16 96 -16 33 -16 36 2 48 15 11 16 17 6 29 -9 11 -10 17 -2
22 7 4 8 11 2 18 -5 7 -15 30 -22 52 -7 22 -16 44 -21 50 -5 5 -9 15 -9 22 0
18 -39 55 -50 48 -6 -4 -10 1 -10 9 0 8 -16 23 -36 32 l-37 18 -28 -32 c-16
-18 -29 -38 -29 -45 0 -8 4 -7 10 3 8 12 10 12 10 1 0 -9 4 -10 13 -4 6 6 24
13 39 15 31 6 68 -28 68 -61 0 -11 8 -27 17 -36 15 -16 15 -21 -1 -85 -13 -50
-15 -73 -7 -88 6 -10 7 -22 4 -26 -3 -3 -1 -6 5 -6 7 0 12 -6 12 -14 0 -8 9
-12 23 -11 12 1 15 0 6 -2 -9 -2 -22 -15 -29 -29 -7 -13 -18 -24 -24 -24 -12
0 -36 45 -36 66 0 7 -5 14 -11 16 -13 4 -15 197 -2 207 4 3 9 19 10 34 1 26 0
27 -13 10 -7 -10 -14 -22 -14 -26 0 -5 -14 -29 -32 -53 -27 -38 -30 -47 -20
-68 9 -21 9 -24 -7 -23 -12 1 -17 6 -13 17 4 11 0 10 -16 -4 -22 -19 -26 -16
-22 19 2 20 2 20 -19 1 -11 -10 -18 -22 -15 -27 2 -4 -7 -15 -20 -24 -14 -9
-28 -25 -31 -36 -11 -33 -27 -21 -24 19 4 69 -9 102 -41 102 -21 0 -30 -7 -40
-31 -9 -22 -15 -27 -21 -17 -5 7 -13 13 -19 13 -5 0 -10 4 -9 9 0 5 -5 13 -13
17 -8 5 -8 9 -2 9 8 0 9 11 4 33 -4 17 -12 31 -18 30 -7 -2 -12 2 -12 7 0 6 5
10 10 10 6 0 10 11 10 24 0 14 4 27 8 30 16 10 1 84 -19 89 -11 3 -19 14 -20
29 0 12 -2 37 -4 53 -4 44 14 111 36 131 10 9 19 23 19 30 0 7 5 14 12 16 16
6 1 58 -17 58 -9 0 -15 10 -15 24 0 14 -5 28 -10 31 -8 5 -7 11 1 21 9 12 9
18 0 27 -11 11 -24 2 -34 -26 -4 -13 -36 4 -42 23 -4 12 -12 16 -25 13 -34 -9
-98 -173 -67 -173 17 0 41 40 41 70 1 26 39 41 78 32 23 -6 11 -32 -16 -32
-11 0 -28 -5 -36 -10 -11 -8 -3 -10 30 -10 25 0 57 -1 72 -1 42 0 42 -14 0
-71 -21 -29 -47 -74 -58 -100 -20 -50 -31 -58 -40 -33 -4 8 -12 15 -20 15 -8
0 -14 5 -14 10 0 21 -31 9 -43 -17 -6 -16 -21 -36 -33 -45 -11 -9 -29 -35 -39
-57 -10 -23 -24 -41 -31 -41 -17 0 14 83 51 138 27 40 31 63 15 92 -7 14 -6
23 5 34 22 22 19 45 -5 39 -25 -7 -25 -2 0 39 29 47 27 70 -5 62 -30 -7 -31 2
-5 36 11 14 20 32 20 41 0 22 48 31 58 12 11 -19 43 -6 35 15 -5 11 -2 14 10
9 12 -4 17 -1 17 11 0 10 14 31 30 47 17 16 30 35 30 42 0 7 4 13 9 13 5 0 11
11 13 25 7 32 -2 32 -27 -2 -11 -15 -32 -38 -47 -52 -16 -13 -28 -29 -28 -35
0 -7 -14 -17 -31 -23 -36 -14 -51 6 -30 39 16 25 4 39 -13 15 -7 -9 -18 -17
-24 -17 -6 0 -14 -9 -17 -20 -3 -11 -11 -20 -16 -20 -5 0 -9 9 -9 20 0 11 7
20 15 20 9 0 18 6 21 14 3 8 16 17 30 20 21 6 23 9 14 26 -6 11 -8 20 -4 20 3
0 1 7 -6 15 -7 9 -14 23 -15 33 -2 22 -23 72 -30 72 -3 0 -17 -7 -31 -16 -32
-22 -44 -10 -16 16 16 15 21 31 20 63 -1 65 32 157 57 157 21 0 27 30 7 36 -9
3 -25 10 -34 15 -25 13 -62 11 -76 -3 -22 -22 -39 8 -17 32 11 12 13 20 6 20
-6 0 -14 -7 -17 -15 -4 -8 -11 -15 -17 -15 -5 0 -25 -11 -44 -26 l-33 -25 12
28 c6 15 15 32 20 38 13 15 9 28 -6 22 -8 -3 -20 1 -26 9 -15 17 -42 18 -57 3
-15 -15 -28 8 -14 25 6 7 8 22 4 31 -5 15 -3 17 11 12 11 -4 24 2 37 17 18 21
25 22 71 15 28 -5 58 -15 68 -24 17 -16 56 -20 63 -7 3 4 1 16 -4 27 -7 19
-10 18 -13 -7 -2 -18 -26 -22 -26 -4 0 9 -4 16 -9 16 -5 0 -8 8 -7 18 2 28
-99 30 -128 3 -18 -17 -25 -18 -34 -9 -17 17 -134 -108 -126 -134 3 -12 0 -18
-9 -18 -22 0 -26 20 -11 56 12 29 12 32 -5 37 -20 5 -55 -28 -46 -43 6 -10
-33 -80 -46 -80 -5 0 -9 11 -9 25 0 14 -4 25 -10 25 -5 0 -10 -6 -10 -12 0
-16 -20 12 -20 28 0 25 99 116 118 110 14 -5 21 -1 25 14 5 18 1 20 -46 20
-29 -1 -56 -5 -62 -10z m35 -5 c0 -3 -2 -5 -5 -5 -3 0 -5 2 -5 5 0 3 2 5 5 5
3 0 5 -2 5 -5z m-50 -70 c0 -3 -2 -5 -5 -5 -3 0 -5 2 -5 5 0 3 2 5 5 5 3 0 5
-2 5 -5z m210 -30 c0 -3 -2 -5 -5 -5 -3 0 -5 2 -5 5 0 3 2 5 5 5 3 0 5 -2 5
-5z m-273 -27 c-3 -8 -6 -5 -6 6 -1 11 2 17 5 13 3 -3 4 -12 1 -19z m-29 -39
c3 -11 2 -11 -7 1 -10 13 -12 13 -21 0 -5 -8 -10 -10 -10 -4 0 27 31 30 38 3z
m32 16 c0 -3 -2 -5 -5 -5 -3 0 -5 2 -5 5 0 3 2 5 5 5 3 0 5 -2 5 -5z m280 1
c0 -2 -7 -6 -15 -10 -8 -3 -15 -1 -15 4 0 6 7 10 15 10 8 0 15 -2 15 -4z m20
-11 c0 -3 -2 -5 -5 -5 -3 0 -5 2 -5 5 0 3 2 5 5 5 3 0 5 -2 5 -5z m45 -9 c16
-8 22 -17 16 -21 -16 -10 -51 4 -51 21 0 17 1 17 35 0z m-472 -51 c4 -8 2 -17
-3 -20 -6 -4 -10 3 -10 14 0 25 6 27 13 6z m204 -2 c-4 -3 -7 0 -7 7 0 7 3 10
7 7 3 -4 3 -10 0 -14z m63 13 c0 -2 -8 -10 -17 -17 -16 -13 -17 -12 -4 4 13
16 21 21 21 13z m-480 -21 c0 -3 -2 -5 -5 -5 -3 0 -5 2 -5 5 0 3 2 5 5 5 3 0
5 -2 5 -5z m0 -70 c0 -3 -2 -5 -5 -5 -3 0 -5 2 -5 5 0 3 2 5 5 5 3 0 5 -2 5
-5z m-353 -122 c-4 -3 -10 -3 -14 0 -3 4 0 7 7 7 7 0 10 -3 7 -7z m233 -33 c0
-5 -2 -10 -4 -10 -3 0 -8 5 -11 10 -3 6 -1 10 4 10 6 0 11 -4 11 -10z m1020
-86 c0 -17 -8 -17 -39 0 -23 13 -23 14 -5 24 21 12 44 -1 44 -24z m-1550 -29
c0 -3 -2 -5 -5 -5 -3 0 -5 2 -5 5 0 3 2 5 5 5 3 0 5 -2 5 -5z m320 -160 c0 -3
-2 -5 -5 -5 -3 0 -5 2 -5 5 0 3 2 5 5 5 3 0 5 -2 5 -5z m-20 -16 c0 -6 -13
-21 -28 -34 -15 -13 -34 -35 -41 -49 -15 -27 -35 -34 -46 -15 -10 15 14 71 39
91 23 19 76 24 76 7z m30 -34 c0 -3 -2 -5 -5 -5 -3 0 -5 2 -5 5 0 3 2 5 5 5 3
0 5 -2 5 -5z m1217 -2 c-4 -3 -10 -3 -14 0 -3 4 0 7 7 7 7 0 10 -3 7 -7z m140
-39 c-9 -9 -28 6 -21 18 4 6 10 6 17 -1 6 -6 8 -13 4 -17z m-1527 -9 c0 -3 -2
-5 -5 -5 -3 0 -5 2 -5 5 0 3 2 5 5 5 3 0 5 -2 5 -5z m257 -277 c2 -17 0 -19
-7 -8 -5 8 -6 18 -4 22 8 12 10 10 11 -14z m1239 -43 c-8 -23 -25 -9 -19 16 4
13 9 17 16 10 5 -5 7 -17 3 -26z m18 -37 c-2 -4 0 -9 6 -13 5 -3 10 -1 10 5 0
6 5 8 10 5 6 -3 10 -1 10 4 0 17 17 13 24 -5 4 -9 -5 -44 -18 -78 -13 -33 -27
-84 -31 -113 -16 -121 -72 -67 -59 58 4 38 11 69 15 69 5 0 9 4 9 10 0 5 -10
8 -22 7 -18 -3 -68 37 -68 54 0 2 27 4 59 4 33 0 57 -3 55 -7z m-88 -80 c4 -6
3 -8 -3 -5 -6 4 -16 0 -23 -8 -10 -12 -9 -15 4 -15 20 0 20 -13 -1 -53 -15
-30 -40 -56 -55 -57 -12 0 5 45 25 67 23 25 16 43 -8 23 -11 -9 -18 -10 -29
-1 -11 9 -15 9 -19 -1 -2 -7 -8 -10 -12 -6 -12 12 22 56 47 61 44 8 67 7 74
-5z m194 -16 c0 -15 -2 -15 -10 -2 -13 20 -13 33 0 25 6 -3 10 -14 10 -23z
m-170 -7 c0 -3 -2 -5 -5 -5 -3 0 -5 2 -5 5 0 3 2 5 5 5 3 0 5 -2 5 -5z m120
-25 c0 -5 -5 -10 -11 -10 -5 0 -7 5 -4 10 3 6 8 10 11 10 2 0 4 -4 4 -10z m27
-27 c-4 -3 -7 0 -7 7 0 7 3 10 7 7 3 -4 3 -10 0 -14z m23 -58 c0 -3 -2 -5 -5
-5 -3 0 -5 2 -5 5 0 3 2 5 5 5 3 0 5 -2 5 -5z m-53 -22 c-4 -3 -7 0 -7 7 0 7
3 10 7 7 3 -4 3 -10 0 -14z m373 -103 c0 -5 -9 -27 -21 -49 -11 -22 -17 -45
-14 -52 5 -7 1 -10 -11 -7 -23 4 -31 65 -14 98 11 20 60 29 60 10z m-2360 -65
c0 -3 -2 -5 -5 -5 -3 0 -5 2 -5 5 0 3 2 5 5 5 3 0 5 -2 5 -5z m2530 0 c0 -3
-2 -5 -5 -5 -3 0 -5 2 -5 5 0 3 2 5 5 5 3 0 5 -2 5 -5z m-2302 -42 c0 -21 3
-47 6 -58 9 -30 -6 -46 -49 -51 -52 -6 -68 9 -60 58 6 31 4 38 -10 38 -14 0
-16 -9 -13 -52 1 -28 -1 -53 -7 -54 -22 -8 -33 14 -36 71 -4 57 -3 60 24 69
49 18 82 -9 78 -64 -3 -40 -1 -43 14 -30 12 10 15 23 10 51 -8 44 -1 59 25 59
15 0 19 -7 18 -37z m-188 22 c0 -3 -2 -5 -5 -5 -3 0 -5 2 -5 5 0 3 2 5 5 5 3
0 5 -2 5 -5z m340 -21 c0 -31 -16 -39 -25 -11 -7 25 -11 19 -20 -37 -7 -44
-13 -42 -25 9 -12 51 -5 63 36 62 28 -1 34 -5 34 -23z m-340 -154 c0 -5 -4
-10 -10 -10 -5 0 -10 5 -10 10 0 6 5 10 10 10 6 0 10 -4 10 -10z m-60 -25 c0
-3 -2 -5 -5 -5 -3 0 -5 2 -5 5 0 3 2 5 5 5 3 0 5 -2 5 -5z M1596 2679 c-26
-21 -34 -39 -16 -39 5 0 24 13 42 30 39 35 17 43 -26 9z M1956 2691 c-4 -5 0
-12 6 -14 10 -4 10 -6 1 -6 -21 -2 -15 -31 6 -31 12 0 23 11 30 30 9 28 8 30
-14 30 -13 0 -26 -4 -29 -9z M2047 2682 c-20 -22 -22 -39 -3 -23 7 6 21 9 29
5 9 -3 24 1 33 11 21 21 12 30 -16 15 -15 -8 -20 -8 -16 -1 12 18 -10 12 -27
-7z M2137 2694 c-11 -11 -8 -26 3 -19 6 3 10 -1 10 -9 0 -9 6 -16 14 -16 7 0
16 -9 19 -20 3 -13 10 -18 21 -14 21 8 20 84 -1 84 -8 0 -11 -4 -8 -10 3 -6
-5 -10 -19 -10 -13 0 -26 5 -28 11 -2 5 -7 7 -11 3z M2265 2678 c-8 -22 -13
-138 -7 -138 17 0 42 25 42 43 0 13 6 29 13 36 10 10 9 12 -3 9 -12 -2 -14 5
-12 35 4 42 -20 53 -33 15z M2443 2693 c4 -3 10 -3 14 0 3 4 0 7 -7 7 -7 0
-10 -3 -7 -7z M2580 2695 c0 -3 2 -5 5 -5 3 0 5 2 5 5 0 3 -2 5 -5 5 -3 0 -5
-2 -5 -5z M2665 2690 c3 -5 10 -10 16 -10 5 0 9 5 9 10 0 6 -7 10 -16 10 -8 0
-12 -4 -9 -10z M1930 2685 c0 -3 2 -5 5 -5 3 0 5 2 5 5 0 3 -2 5 -5 5 -3 0 -5
-2 -5 -5z M2605 2681 c-3 -5 -1 -12 5 -16 12 -7 30 2 30 16 0 12 -27 12 -35 0z
M2685 2660 c-3 -5 1 -10 9 -10 9 0 16 5 16 10 0 6 -4 10 -9 10 -6 0 -13 -4
-16 -10z M2123 2653 c4 -3 10 -3 14 0 3 4 0 7 -7 7 -7 0 -10 -3 -7 -7z M2050
2645 c0 -3 2 -5 5 -5 3 0 5 2 5 5 0 3 -2 5 -5 5 -3 0 -5 -2 -5 -5z M2552 2632
c-12 -8 -22 -20 -22 -27 0 -9 -20 -11 -75 -7 l-75 5 0 -26 c0 -35 19 -44 39
-19 20 27 79 33 92 10 5 -9 23 -19 39 -23 17 -4 30 -13 30 -20 0 -24 -12 -45
-26 -45 -8 0 -14 -8 -14 -19 0 -26 -38 -35 -45 -10 -7 21 -20 25 -30 8 -4 -6
-20 -8 -38 -4 l-32 6 27 -25 c15 -14 26 -31 24 -38 -2 -7 -7 -25 -10 -40 -6
-24 -57 -88 -71 -88 -12 0 -4 40 13 56 26 26 25 57 -2 50 -11 -3 -27 -6 -35
-6 -10 0 -12 -8 -8 -30 8 -39 -5 -45 -33 -15 -28 30 -40 32 -40 5 0 -11 -5
-20 -10 -20 -7 0 -7 -6 0 -19 5 -11 10 -33 10 -49 0 -33 25 -46 55 -30 13 8
14 12 5 18 -8 5 -10 15 -5 26 8 18 8 18 12 1 4 -14 11 -17 26 -13 12 4 34 9
50 12 15 4 27 12 27 18 0 14 47 66 60 66 6 0 10 9 10 21 0 11 4 17 10 14 6 -3
7 1 4 9 -3 9 -2 16 4 16 5 0 12 9 15 20 4 15 14 20 39 20 19 0 38 3 42 7 3 4
12 8 19 9 7 1 20 5 30 9 16 7 17 4 11 -20 -6 -25 -5 -26 15 -13 25 15 30 68 6
68 -8 0 -15 9 -15 19 0 10 7 21 15 25 17 6 20 32 5 41 -6 4 -22 -1 -36 -10
-22 -14 -23 -19 -12 -33 7 -9 8 -13 2 -9 -7 4 -17 0 -24 -8 -19 -23 -38 -18
-42 13 -2 19 -9 28 -25 30 -23 3 -33 22 -13 22 6 0 20 9 32 20 26 24 38 25 38
4 0 -9 6 -14 13 -11 6 2 11 10 9 16 -1 7 2 10 7 7 5 -4 12 -2 16 4 3 5 -2 10
-12 11 -10 1 -32 2 -48 4 -17 1 -40 -4 -53 -13z m-172 -277 c0 -3 -2 -5 -5 -5
-3 0 -5 2 -5 5 0 3 2 5 5 5 3 0 5 -2 5 -5z M2350 2630 c0 -5 5 -10 11 -10 5 0
7 5 4 10 -3 6 -8 10 -11 10 -2 0 -4 -4 -4 -10z M1751 2621 c-27 -17 49 -67
106 -70 19 -1 20 1 10 24 -13 27 -27 31 -44 14 -18 -18 -46 -2 -40 21 5 21 -8
26 -32 11z M1800 2625 c0 -3 2 -5 5 -5 3 0 5 2 5 5 0 3 -2 5 -5 5 -3 0 -5 -2
-5 -5z M2103 2623 c4 -3 10 -3 14 0 3 4 0 7 -7 7 -7 0 -10 -3 -7 -7z M1360
2615 c0 -3 2 -5 5 -5 3 0 5 2 5 5 0 3 -2 5 -5 5 -3 0 -5 -2 -5 -5z M2133 2613
c4 -3 10 -3 14 0 3 4 0 7 -7 7 -7 0 -10 -3 -7 -7z M1978 2575 c-13 -19 -28
-35 -34 -35 -7 0 -14 -7 -18 -15 -4 -12 1 -14 33 -9 26 4 48 1 70 -11 37 -19
61 -14 61 11 0 10 8 26 17 36 15 17 15 19 -3 33 -22 17 -50 19 -59 5 -9 -15
-25 -12 -25 5 0 25 -19 17 -42 -20z M720 2585 c0 -3 2 -5 5 -5 3 0 5 2 5 5 0
3 -2 5 -5 5 -3 0 -5 -2 -5 -5z M1052 2565 c0 -16 2 -22 5 -12 2 9 2 23 0 30
-3 6 -5 -1 -5 -18z M1016 2568 c3 -4 9 -8 15 -8 5 0 9 4 9 8 0 5 -7 9 -15 9
-8 0 -12 -4 -9 -9z M2136 2517 c-11 -23 -22 -46 -24 -50 -2 -5 5 -11 17 -14
23 -6 27 -23 9 -41 -15 -15 8 -63 27 -56 19 8 26 44 9 44 -17 0 -19 46 -3 56
8 5 7 10 -4 16 -18 10 -12 38 8 38 7 0 16 -6 18 -12 4 -10 6 -10 6 0 1 6 6 12
11 12 7 0 7 -6 0 -19 -12 -24 -13 -41 0 -21 5 8 12 11 16 8 4 -4 -1 -19 -9
-32 -16 -24 -16 -26 12 -45 16 -12 34 -21 40 -21 18 0 13 19 -9 32 -18 12 -28
38 -15 38 12 0 70 -33 77 -44 4 -6 10 -8 13 -4 10 10 -25 57 -54 71 -19 9 -25
20 -23 36 2 20 0 22 -13 11 -12 -10 -16 -9 -21 4 -3 9 -15 16 -25 16 -10 0
-19 5 -19 10 0 25 -27 6 -44 -33z M2316 2545 c4 -8 9 -15 13 -15 4 0 13 -11
19 -25 10 -21 15 -23 35 -16 14 6 30 5 40 -1 28 -15 39 -5 22 20 -9 12 -26 22
-38 22 -12 1 -33 7 -47 15 -33 19 -51 19 -44 0z M2463 2543 c4 -3 10 -3 14 0
3 4 0 7 -7 7 -7 0 -10 -3 -7 -7z M1220 2535 c0 -3 2 -5 5 -5 3 0 5 2 5 5 0 3
-2 5 -5 5 -3 0 -5 -2 -5 -5z M2492 2523 c2 -9 8 -18 15 -20 7 -3 9 3 6 16 -6
25 -26 28 -21 4z M2550 2505 c0 -3 2 -5 5 -5 3 0 5 2 5 5 0 3 -2 5 -5 5 -3 0
-5 -2 -5 -5z M2530 2495 c0 -3 2 -5 5 -5 3 0 5 2 5 5 0 3 -2 5 -5 5 -3 0 -5
-2 -5 -5z M2042 2457 c-14 -8 -19 -16 -13 -22 19 -20 18 -140 -1 -129 -10 6
-10 4 0 -8 16 -20 1 -32 -28 -23 -15 5 -18 1 -17 -15 1 -17 6 -19 36 -14 l34
7 -6 -34 c-3 -19 -8 -42 -12 -51 -5 -13 -2 -18 9 -18 9 0 16 -8 16 -19 0 -23
16 -36 25 -21 11 18 69 44 100 44 27 1 31 5 39 44 6 30 6 46 -2 54 -9 9 -12 9
-12 0 0 -7 -8 -12 -17 -12 -9 0 -32 -14 -50 -32 -30 -29 -33 -30 -39 -12 -13
39 -35 83 -44 89 -22 13 -8 31 25 33 19 2 35 -2 35 -8 0 -5 6 -9 13 -7 8 1 11
-10 9 -38 l-3 -40 15 29 c9 15 16 35 16 42 0 8 5 14 11 14 5 0 7 5 3 11 -3 6
-16 8 -29 5 -25 -6 -39 16 -51 81 -11 61 -23 71 -62 50z m38 -282 c0 -3 -2 -5
-5 -5 -3 0 -5 2 -5 5 0 3 2 5 5 5 3 0 5 -2 5 -5z M2361 2461 c-10 -7 -10 -10
-1 -16 6 -4 16 -3 22 3 13 13 -4 23 -21 13z M1320 2409 c0 -5 5 -7 10 -4 6 3
10 8 10 11 0 2 -4 4 -10 4 -5 0 -10 -5 -10 -11z M2583 2398 c-18 -24 -45 -90
-39 -96 4 -3 12 9 18 26 14 37 36 49 45 25 4 -11 -1 -22 -15 -31 -12 -8 -22
-20 -22 -27 0 -8 -8 -11 -19 -8 -10 3 -22 0 -25 -6 -11 -17 -24 -13 -31 9 -10
32 -32 25 -27 -9 3 -21 11 -31 29 -36 14 -3 32 -13 40 -20 32 -33 85 -5 62 32
-10 16 -7 27 15 61 26 41 26 43 9 67 -21 28 -27 30 -40 13z m17 -13 c0 -3 -2
-5 -5 -5 -3 0 -5 2 -5 5 0 3 2 5 5 5 3 0 5 -2 5 -5z M1250 2395 c0 -3 2 -5 5
-5 3 0 5 2 5 5 0 3 -2 5 -5 5 -3 0 -5 -2 -5 -5z M1735 2380 c3 -5 8 -10 11
-10 2 0 4 5 4 10 0 6 -5 10 -11 10 -5 0 -7 -4 -4 -10z M1970 2366 c0 -8 -5
-16 -11 -18 -6 -2 -15 -25 -19 -51 -7 -47 1 -69 17 -45 12 20 31 128 21 128
-4 0 -8 -6 -8 -14z M2694 2369 c-3 -6 -1 -16 5 -22 8 -8 11 -5 11 11 0 24 -5
28 -16 11z M1190 2335 c0 -3 2 -5 5 -5 3 0 5 2 5 5 0 3 -2 5 -5 5 -3 0 -5 -2
-5 -5z M1320 2318 c0 -18 2 -19 18 -7 9 7 18 14 20 15 1 1 -6 4 -18 7 -15 4
-20 0 -20 -15z M1391 2315 c-14 -7 -31 -11 -38 -8 -8 3 -13 -2 -12 -13 0 -11
3 -14 6 -6 7 19 23 4 23 -24 0 -17 5 -24 20 -24 13 0 20 7 20 20 0 11 -4 20
-10 20 -5 0 -10 4 -10 10 0 5 6 7 14 4 17 -6 32 14 20 26 -5 5 -20 3 -33 -5z
M2675 2320 c-24 -10 -59 -50 -51 -58 11 -11 86 33 86 51 0 19 -5 20 -35 7z
M1170 2310 c0 -7 3 -10 7 -7 3 4 3 10 0 14 -4 3 -7 0 -7 -7z M1460 2305 c0 -3
2 -5 5 -5 3 0 5 2 5 5 0 3 -2 5 -5 5 -3 0 -5 -2 -5 -5z M1490 2295 c0 -3 2 -5
5 -5 3 0 5 2 5 5 0 3 -2 5 -5 5 -3 0 -5 -2 -5 -5z M1258 2283 c7 -3 16 -2 19
1 4 3 -2 6 -13 5 -11 0 -14 -3 -6 -6z M1440 2285 c0 -3 2 -5 5 -5 3 0 5 2 5 5
0 3 -2 5 -5 5 -3 0 -5 -2 -5 -5z M1290 2260 c0 -7 3 -10 7 -7 3 4 3 10 0 14
-4 3 -7 0 -7 -7z M1560 2266 c0 -2 7 -6 15 -10 8 -3 15 -1 15 4 0 6 -7 10 -15
10 -8 0 -15 -2 -15 -4z M1160 2255 c0 -3 2 -5 5 -5 3 0 5 2 5 5 0 3 -2 5 -5 5
-3 0 -5 -2 -5 -5z M1600 2245 c0 -9 5 -15 11 -13 6 2 11 8 11 13 0 5 -5 11
-11 13 -6 2 -11 -4 -11 -13z M325 2239 c-4 -6 -5 -12 -2 -15 2 -3 7 2 10 11 7
17 1 20 -8 4z M1481 2232 c-12 -22 3 -44 25 -35 23 9 16 22 -8 15 -21 -5 -22
-4 -9 12 8 9 11 19 8 22 -3 3 -10 -3 -16 -14z M1655 2240 c-11 -5 -14 -9 -6
-9 19 -1 -6 -31 -26 -31 -8 0 -11 -4 -8 -10 3 -5 14 -10 24 -10 10 0 40 -12
66 -26 43 -24 47 -25 43 -8 -2 13 -13 20 -35 22 -44 4 -67 32 -27 32 28 1 28
1 9 16 -17 13 -18 16 -5 24 20 13 -5 13 -35 0z M2642 2228 l-21 -23 24 -11
c20 -10 24 -9 28 12 7 37 -7 47 -31 22z M1006 2199 c-20 -23 -33 -45 -30 -48
3 -3 14 5 23 19 9 13 24 33 34 43 10 10 17 21 14 23 -3 3 -21 -14 -41 -37z
M1110 2235 c0 -3 2 -5 5 -5 3 0 5 2 5 5 0 3 -2 5 -5 5 -3 0 -5 -2 -5 -5z
M1130 2235 c0 -3 2 -5 5 -5 3 0 5 2 5 5 0 3 -2 5 -5 5 -3 0 -5 -2 -5 -5z
M1166 2227 c-31 -10 -39 -17 -42 -39 -3 -32 17 -29 40 8 10 14 22 21 31 18 9
-4 15 0 15 10 0 9 -1 16 -2 15 -2 0 -20 -6 -42 -12z M1450 2235 c0 -3 2 -5 5
-5 3 0 5 2 5 5 0 3 -2 5 -5 5 -3 0 -5 -2 -5 -5z M283 2205 c15 -9 27 -18 27
-21 0 -4 -12 -3 -27 0 -20 5 -24 4 -13 -3 11 -7 7 -10 -16 -9 -16 1 -39 -4
-51 -10 -27 -15 -64 -92 -52 -113 4 -9 7 -29 5 -45 -4 -35 3 -51 15 -33 6 10
9 8 9 -8 0 -16 4 -21 15 -17 8 4 15 1 15 -5 0 -6 -4 -11 -10 -11 -12 0 -13
-67 -1 -74 8 -5 20 48 22 97 0 9 -9 31 -21 47 -19 26 -20 34 -10 65 6 19 15
35 19 35 4 0 14 11 21 25 8 16 25 27 46 31 18 3 35 13 38 21 3 8 10 11 16 8 5
-3 10 1 10 9 0 8 -8 14 -17 14 -10 -1 -29 2 -43 6 -24 6 -24 6 3 -9z m-116
-157 c-3 -8 -6 -5 -6 6 -1 11 2 17 5 13 3 -3 4 -12 1 -19z M740 2206 c0 -11 9
-16 26 -16 31 0 28 23 -4 28 -15 2 -22 -2 -22 -12z M1065 2210 c-3 -5 -1 -10
4 -10 6 0 11 5 11 10 0 6 -2 10 -4 10 -3 0 -8 -4 -11 -10z M1380 2208 c0 -9 5
-20 10 -23 13 -8 13 5 0 25 -8 13 -10 13 -10 -2z M350 2200 c0 -7 3 -10 7 -7
3 4 3 10 0 14 -4 3 -7 0 -7 -7z M2371 2177 c2 -18 -3 -42 -9 -54 -18 -32 -15
-43 11 -43 30 0 40 10 26 26 -7 8 -9 28 -5 48 6 33 9 35 32 26 14 -6 36 -22
49 -37 13 -16 25 -22 25 -15 0 6 9 12 20 12 11 0 20 5 20 10 0 18 -39 50 -62
52 -120 8 -110 10 -107 -25z M430 2179 c0 -5 5 -7 10 -4 6 3 10 8 10 11 0 2
-4 4 -10 4 -5 0 -10 -5 -10 -11z M1525 2180 c3 -5 10 -10 16 -10 5 0 9 5 9 10
0 6 -7 10 -16 10 -8 0 -12 -4 -9 -10z M1021 2143 c-9 -20 -15 -23 -20 -14 -6
9 -8 3 -8 -15 0 -16 2 -23 4 -16 3 6 11 12 18 12 11 0 45 41 45 55 0 17 -29 1
-39 -22z M2574 2145 c-9 -14 -14 -29 -10 -33 4 -4 12 1 17 11 6 9 16 17 24 17
9 0 12 6 9 15 -9 22 -21 18 -40 -10z M2693 2151 c-4 -18 -36 -35 -57 -32 -5 1
-19 -7 -31 -19 -12 -12 -26 -20 -31 -19 -22 4 -27 -2 -11 -13 15 -12 15 -15
-3 -38 -22 -29 -37 -21 -42 23 -3 18 -14 33 -32 42 -33 18 -46 12 -46 -20 0
-29 -16 -41 -34 -26 -11 9 -15 5 -19 -16 -3 -16 -1 -30 4 -31 5 -2 16 -10 24
-19 9 -9 15 -10 15 -3 0 6 8 10 18 8 21 -3 25 7 16 35 -7 21 -6 22 23 31 21 7
22 4 19 -31 -3 -26 4 -56 20 -91 14 -31 22 -63 19 -77 -3 -14 -7 -36 -10 -50
-10 -45 -51 -16 -46 32 1 7 -7 21 -19 33 -11 11 -20 29 -20 40 0 11 -4 20 -10
20 -6 0 -8 -26 -6 -62 3 -50 0 -68 -15 -87 -17 -21 -19 -22 -20 -5 -1 11 -1
24 0 31 3 21 -18 24 -29 3 -13 -23 -30 -27 -30 -5 0 8 -4 15 -8 15 -11 0 -35
-87 -27 -99 9 -15 81 -14 97 2 23 23 71 35 95 24 18 -8 26 -6 41 13 15 18 25
22 46 16 56 -14 35 -70 -30 -82 -19 -3 -34 -10 -34 -14 0 -4 -8 -10 -19 -13
-14 -3 -18 1 -18 19 0 13 3 24 8 24 5 0 9 4 9 10 0 5 -16 -1 -35 -13 -40 -26
-44 -51 -14 -101 18 -31 25 -35 47 -30 22 5 25 4 15 -7 -19 -19 -16 -29 8 -29
15 0 19 4 15 16 -5 14 -1 16 21 11 22 -4 34 0 52 19 18 19 27 22 35 13 8 -8 8
-13 -1 -16 -23 -8 -14 -33 11 -33 13 0 31 -3 40 -6 14 -5 16 3 16 57 -1 64 -1
64 -19 42 -11 -13 -27 -23 -37 -23 -17 0 -17 1 0 13 18 13 18 14 1 21 -10 4
-22 1 -29 -8 -14 -19 -82 -56 -101 -56 -8 0 -15 8 -15 18 0 24 36 76 44 63 12
-18 86 14 86 38 0 11 3 12 8 4 8 -13 52 -6 52 8 0 5 -9 9 -20 9 -16 0 -20 7
-20 30 0 32 9 37 27 19 9 -9 14 -5 19 16 4 18 2 30 -7 36 -10 6 -11 11 -3 17
7 4 12 38 13 77 1 63 0 68 -14 50 -8 -11 -17 -35 -21 -54 -4 -18 -15 -42 -25
-52 -13 -13 -16 -28 -12 -61 l4 -43 -20 24 c-13 14 -21 37 -21 57 0 24 -5 34
-15 34 -8 0 -15 9 -15 19 0 11 7 26 15 35 8 8 15 23 15 34 0 11 11 30 25 43
13 13 25 33 25 45 0 25 18 44 42 44 14 0 18 8 18 35 0 38 -9 46 -17 16z M1134
2146 c-5 -6 -13 -16 -17 -22 -10 -17 56 -7 69 11 6 8 14 13 17 10 4 -3 5 -2 2
1 -8 12 -60 12 -71 0z M1520 2155 c0 -3 2 -5 5 -5 3 0 5 2 5 5 0 3 -2 5 -5 5
-3 0 -5 -2 -5 -5z M2279 2153 c-1 -5 0 -18 1 -30 1 -15 -4 -23 -14 -23 -8 0
-16 -8 -18 -17 -3 -15 -5 -15 -22 3 -17 17 -19 17 -13 2 3 -10 2 -18 -3 -18
-26 0 -51 -46 -46 -82 3 -22 1 -38 -4 -38 -6 0 -10 -5 -10 -11 0 -6 9 -9 19
-6 13 3 18 0 15 -7 -3 -9 9 -13 38 -14 33 -2 39 1 30 10 -18 18 -15 25 13 32
23 6 24 10 20 50 -4 43 11 66 35 51 9 -6 23 72 14 86 -10 17 -34 -12 -34 -42
0 -15 -5 -31 -11 -35 -11 -7 -6 45 8 82 3 8 0 14 -6 14 -6 0 -11 -3 -12 -7z
m38 -80 c-4 -3 -7 0 -7 7 0 7 3 10 7 7 3 -4 3 -10 0 -14z m-57 -43 c0 -6 -4
-10 -9 -10 -5 0 -17 -7 -26 -16 -9 -9 -19 -14 -22 -11 -3 3 2 14 11 23 10 9
15 23 12 31 -4 11 -1 11 14 3 11 -6 20 -15 20 -20z m-55 -60 c3 -6 -1 -7 -9
-4 -18 7 -21 14 -7 14 6 0 13 -4 16 -10z M272 2120 c-14 -18 -25 -49 -29 -82
-5 -50 -4 -52 10 -33 9 11 17 24 17 29 0 5 6 17 13 25 7 9 18 33 24 54 14 46
-1 49 -35 7z M1225 2140 c-1 -3 1 -14 6 -25 7 -18 8 -18 8 -2 1 16 3 17 16 4
18 -19 52 -11 66 14 9 17 7 18 -16 9 -14 -5 -25 -6 -25 -1 0 9 -50 10 -55 1z
M1350 2145 c0 -3 2 -5 5 -5 3 0 5 2 5 5 0 3 -2 5 -5 5 -3 0 -5 -2 -5 -5z
M1680 2145 c0 -3 2 -5 5 -5 3 0 5 2 5 5 0 3 -2 5 -5 5 -3 0 -5 -2 -5 -5z
M2400 2145 c0 -3 2 -5 5 -5 3 0 5 2 5 5 0 3 -2 5 -5 5 -3 0 -5 -2 -5 -5z
M1790 2135 c0 -3 2 -5 5 -5 3 0 5 2 5 5 0 3 -2 5 -5 5 -3 0 -5 -2 -5 -5z
M1553 2123 c4 -3 10 -3 14 0 3 4 0 7 -7 7 -7 0 -10 -3 -7 -7z M1730 2115 c0
-3 2 -5 5 -5 3 0 5 2 5 5 0 3 -2 5 -5 5 -3 0 -5 -2 -5 -5z M1180 2091 c0 -5
-9 -11 -20 -14 -11 -3 -20 -13 -20 -22 0 -14 3 -15 15 -5 8 7 15 10 15 6 0 -3
8 2 18 12 19 17 19 32 1 32 -5 0 -9 -4 -9 -9z M1560 2089 c0 -14 38 -29 56
-22 11 4 15 3 10 -5 -3 -6 2 -16 13 -21 25 -14 54 -14 46 -1 -3 6 -18 10 -33
10 -19 0 -23 3 -13 9 10 7 10 10 1 16 -21 13 -80 23 -80 14z M1729 2096 c-5
-21 -3 -36 8 -71 23 -70 25 -75 34 -75 10 0 0 60 -14 78 -5 6 -6 12 -2 12 4 0
2 7 -5 15 -6 8 -9 19 -6 24 4 5 2 12 -4 16 -5 3 -11 4 -11 1z M1792 2026 c6
-14 15 -26 20 -26 10 0 -7 36 -22 45 -6 4 -5 -5 2 -19z M2344 2010 c0 -11 5
-20 10 -20 5 0 0 -9 -12 -20 -22 -21 -30 -50 -13 -50 5 0 13 9 16 20 3 11 11
20 16 20 12 0 1 -48 -17 -77 -17 -28 -17 -33 -1 -33 44 0 61 83 31 146 -18 38
-30 44 -30 14z M1060 2015 c0 -3 2 -5 5 -5 3 0 5 2 5 5 0 3 -2 5 -5 5 -3 0 -5
-2 -5 -5z M1150 1995 c0 -3 2 -5 5 -5 3 0 5 2 5 5 0 3 -2 5 -5 5 -3 0 -5 -2
-5 -5z M1160 1975 c0 -3 2 -5 5 -5 3 0 5 2 5 5 0 3 -2 5 -5 5 -3 0 -5 -2 -5
-5z M1137 1963 c-8 -12 15 -55 32 -61 8 -3 11 0 7 7 -4 6 0 11 11 12 14 0 15
2 3 6 -8 3 -22 14 -31 26 -9 11 -19 15 -22 10z M1820 1965 c0 -3 2 -5 5 -5 3
0 5 2 5 5 0 3 -2 5 -5 5 -3 0 -5 -2 -5 -5z M1173 1943 c4 -3 10 -3 14 0 3 4 0
7 -7 7 -7 0 -10 -3 -7 -7z M1720 1913 c0 -23 15 -39 24 -25 3 5 -1 18 -9 28
-14 18 -14 18 -15 -3z M393 1905 c-7 -8 -13 -17 -13 -21 0 -3 -11 -28 -25 -55
-13 -27 -22 -49 -20 -49 2 0 -10 -13 -26 -29 -16 -16 -29 -37 -29 -46 0 -9 -6
-15 -12 -12 -15 5 -12 90 3 95 5 2 9 15 9 28 0 13 3 23 8 22 8 -3 12 5 12 27
0 10 -10 15 -26 15 -24 0 -26 -3 -20 -32 4 -24 3 -29 -4 -18 -5 8 -10 10 -10
4 0 -7 -9 -14 -20 -17 -23 -6 -27 -27 -5 -27 15 0 20 -14 29 -82 4 -31 1 -41
-20 -57 -19 -15 -24 -26 -19 -41 7 -22 25 -28 25 -7 0 9 2 9 9 -1 5 -9 13 1
25 32 10 25 33 60 52 78 19 18 34 41 34 51 0 11 16 35 36 55 24 24 37 47 38
66 1 33 -13 42 -31 21z m-56 -162 c-4 -3 -7 0 -7 7 0 7 3 10 7 7 3 -4 3 -10 0
-14z m-90 -105 c-3 -8 -6 -5 -6 6 -1 11 2 17 5 13 3 -3 4 -12 1 -19z M2273
1913 c4 -3 10 -3 14 0 3 4 0 7 -7 7 -7 0 -10 -3 -7 -7z M450 1895 c0 -3 2 -5
5 -5 3 0 5 2 5 5 0 3 -2 5 -5 5 -3 0 -5 -2 -5 -5z M1215 1880 c3 -5 8 -10 11
-10 3 0 2 5 -1 10 -3 6 -8 10 -11 10 -3 0 -2 -4 1 -10z M320 1869 c0 -5 5 -7
10 -4 6 3 10 8 10 11 0 2 -4 4 -10 4 -5 0 -10 -5 -10 -11z M1110 1863 c-13
-15 -12 -16 4 -10 10 4 20 7 22 7 2 0 4 5 4 10 0 15 -13 12 -30 -7z M1238
1867 c-14 -11 -9 -15 41 -30 76 -23 84 -22 71 3 -6 11 -23 22 -38 26 -15 3
-34 8 -42 10 -8 2 -23 -2 -32 -9z M2233 1868 c-26 -41 -29 -62 -11 -80 17 -17
68 -17 68 1 -1 23 -14 51 -25 51 -8 0 -11 8 -8 20 6 22 -11 27 -24 8z m17 -48
c0 -5 -4 -10 -10 -10 -5 0 -10 5 -10 10 0 6 5 10 10 10 6 0 10 -4 10 -10z
M1710 1865 c1 -17 29 -49 37 -41 4 3 -3 16 -15 29 -12 12 -22 17 -22 12z
M1034 1832 c-21 -17 -24 -82 -4 -82 4 0 5 -12 2 -26 -3 -19 -1 -25 7 -20 6 4
9 11 6 15 -2 5 4 32 15 62 11 29 20 57 20 61 0 14 -24 8 -46 -10z M1105 1801
c-3 -5 -1 -12 5 -16 5 -3 10 1 10 9 0 18 -6 21 -15 7z M1633 1793 c4 -3 10 -3
14 0 3 4 0 7 -7 7 -7 0 -10 -3 -7 -7z M628 1766 c-23 -31 -78 -176 -78 -205 0
-38 29 -6 36 40 7 40 20 47 58 33 19 -7 22 -54 4 -55 -7 0 -3 -5 10 -11 31
-15 34 -9 38 74 4 60 2 69 -7 51 -23 -44 -38 -27 -41 46 -1 28 -2 51 -3 51 0
0 -7 -11 -17 -24z M1075 1780 c3 -5 8 -10 11 -10 3 0 2 5 -1 10 -3 6 -8 10
-11 10 -3 0 -2 -4 1 -10z M1158 1783 c7 -3 16 -2 19 1 4 3 -2 6 -13 5 -11 0
-14 -3 -6 -6z M1480 1785 c0 -3 2 -5 5 -5 3 0 5 2 5 5 0 3 -2 5 -5 5 -3 0 -5
-2 -5 -5z M1200 1775 c0 -3 2 -5 5 -5 3 0 5 2 5 5 0 3 -2 5 -5 5 -3 0 -5 -2
-5 -5z M1245 1764 c7 -8 20 -14 27 -14 8 0 23 -7 34 -15 18 -14 18 -14 -6 -16
-14 0 -43 0 -65 1 -23 1 -62 -7 -89 -18 -47 -18 -62 -37 -28 -37 9 0 25 -7 35
-16 19 -17 133 -33 152 -21 12 8 -36 19 -90 21 -36 1 -65 14 -65 31 0 3 50 5
111 5 114 -1 132 -7 122 -44 -2 -9 6 -27 17 -39 23 -25 41 -23 21 2 -8 9 -8
16 -2 20 7 5 7 15 0 33 -11 31 -13 29 31 41 l35 10 -39 1 -38 1 23 19 c29 24
18 39 -16 23 -27 -13 -79 3 -69 20 3 5 -21 8 -54 7 -51 -2 -58 -4 -47 -15z
m165 -124 c0 -5 -4 -10 -10 -10 -5 0 -10 5 -10 10 0 6 5 10 10 10 6 0 10 -4
10 -10z M850 1713 l1 -48 19 39 c20 40 19 56 -6 56 -10 0 -14 -13 -14 -47z
M1470 1755 c0 -3 2 -5 5 -5 3 0 5 2 5 5 0 3 -2 5 -5 5 -3 0 -5 -2 -5 -5z
M1530 1735 c0 -17 -7 -29 -22 -35 -18 -7 -19 -9 -5 -9 11 -1 17 -9 17 -25 0
-22 4 -23 82 -29 48 -4 97 -14 120 -26 40 -19 49 -11 24 22 -11 14 -94 37
-138 37 -5 0 -8 5 -8 10 0 6 9 10 19 10 24 0 32 11 22 29 -5 8 -17 11 -29 7
-14 -5 -28 0 -41 13 -28 28 -41 26 -41 -4z M213 1743 c4 -3 10 -3 14 0 3 4 0
7 -7 7 -7 0 -10 -3 -7 -7z M2043 1727 c-10 -13 -28 -29 -41 -36 -27 -14 -28
-26 -3 -48 47 -43 48 -43 54 -13 4 15 20 42 38 58 17 16 30 35 27 42 -3 9 -8
8 -21 -4 -16 -16 -17 -16 -17 3 0 28 -14 27 -37 -2z m-6 -64 c-8 -9 -21 -13
-27 -11 -9 3 -8 9 4 21 10 9 22 14 28 11 6 -4 4 -12 -5 -21z M1699 1724 c-12
-14 -11 -16 5 -13 11 2 21 10 24 17 5 17 -13 15 -29 -4z M1750 1725 c0 -3 2
-5 5 -5 3 0 5 2 5 5 0 3 -2 5 -5 5 -3 0 -5 -2 -5 -5z M2217 1724 c-3 -4 -4
-19 0 -34 3 -16 1 -43 -5 -62 -20 -64 -24 -138 -8 -132 8 3 17 17 21 31 4 18
9 23 17 15 6 -6 17 -8 24 -5 8 3 14 -1 14 -8 0 -7 -3 -9 -7 -5 -8 8 -63 -78
-63 -100 0 -8 7 -22 15 -30 8 -9 15 -26 15 -38 0 -28 21 -47 69 -62 20 -7 28
-12 19 -13 -24 -1 -12 -26 14 -28 12 -1 29 2 39 7 13 7 22 5 33 -6 13 -12 16
-13 16 -1 0 7 11 24 25 37 14 13 25 29 25 37 0 21 -28 15 -35 -8 -5 -15 -10
-18 -18 -10 -7 7 -7 17 0 34 21 44 -16 139 -58 152 -22 7 -25 21 -6 28 8 3 6
7 -7 12 -11 5 -21 3 -26 -6 -7 -10 -11 -7 -19 14 -6 15 -17 27 -26 27 -9 0
-15 9 -15 23 0 30 -28 125 -39 131 -4 3 -11 3 -14 0z m63 -219 c0 -3 -2 -5 -5
-5 -3 0 -5 2 -5 5 0 3 2 5 5 5 3 0 5 -2 5 -5z m30 -66 c-6 -24 -13 -50 -15
-56 -6 -19 -31 -5 -44 25 -11 23 -10 29 8 43 12 10 21 22 21 27 0 14 23 22 33
12 5 -4 3 -27 -3 -51z m85 -31 c-1 -13 -3 -26 -4 -29 -2 -10 -72 -42 -78 -36
-10 11 9 67 23 67 8 0 14 5 14 10 0 6 11 10 24 10 18 0 23 -5 21 -22z m-35
-78 c0 -5 -4 -10 -10 -10 -5 0 -10 5 -10 10 0 6 5 10 10 10 6 0 10 -4 10 -10z
M894 1709 c-3 -6 -1 -16 5 -22 8 -8 11 -5 11 11 0 24 -5 28 -16 11z M1008
1714 c-5 -4 -8 -16 -8 -28 0 -14 3 -17 11 -9 6 6 9 19 7 28 -1 9 -6 13 -10 9z
M304 1622 c-21 -53 -23 -62 -10 -61 5 0 13 -5 17 -13 6 -9 9 -10 9 -1 0 7 7
10 16 6 14 -5 15 -3 5 16 -7 12 -9 36 -6 55 10 52 -10 51 -31 -2z M440 1656
c0 -9 5 -16 10 -16 6 0 10 4 10 9 0 6 -4 13 -10 16 -5 3 -10 -1 -10 -9z M2315
1648 c8 -29 102 -121 114 -114 18 12 -2 47 -40 68 -22 12 -39 29 -39 39 0 9
-7 20 -16 23 -24 9 -26 8 -19 -16z M896 1638 c-22 -32 -21 -74 3 -81 14 -3 20
2 24 22 3 14 9 38 13 54 8 34 -17 38 -40 5z M1830 1606 c-16 -49 -8 -65 12
-23 9 19 13 39 8 47 -5 8 -12 1 -20 -24z M386 1543 c5 -88 9 -98 22 -50 10 35
-4 127 -19 127 -4 0 -5 -34 -3 -77z M1130 1615 c0 -3 2 -5 5 -5 3 0 5 2 5 5 0
3 -2 5 -5 5 -3 0 -5 -2 -5 -5z M1560 1595 c0 -27 41 -38 101 -27 l54 10 -55 1
c-32 1 -65 8 -78 17 -20 14 -22 14 -22 -1z M441 1584 c0 -11 3 -14 6 -6 3 7 2
16 -1 19 -3 4 -6 -2 -5 -13z M230 1575 c0 -3 2 -5 5 -5 3 0 5 2 5 5 0 3 -2 5
-5 5 -3 0 -5 -2 -5 -5z M1345 1568 c-11 -6 -35 -27 -52 -45 -18 -19 -33 -31
-33 -28 0 4 -14 -7 -30 -25 -31 -34 -46 -70 -37 -92 3 -7 6 -2 6 12 1 17 18
42 49 73 54 53 66 58 52 22 -10 -26 -4 -55 11 -55 5 0 9 5 9 10 0 15 30 12 36
-4 3 -8 12 -12 20 -9 8 3 14 0 14 -6 0 -6 6 -8 14 -5 10 4 12 -2 9 -20 -3 -15
-10 -23 -16 -19 -6 3 -7 1 -3 -5 6 -10 -34 -18 -66 -13 -40 6 -101 2 -110 -7
-17 -17 10 -75 31 -66 17 8 79 7 146 -1 36 -4 35 -1 -4 11 -27 9 -2 15 33 8
30 -5 34 -9 25 -20 -10 -12 -2 -14 43 -14 40 0 62 -6 81 -20 17 -13 28 -17 32
-10 9 15 -33 75 -54 77 -9 1 -41 3 -71 6 -30 3 -63 6 -72 6 -23 1 -12 31 11
31 9 0 29 12 46 26 16 14 43 28 58 31 16 3 31 12 34 20 8 19 -18 35 -34 22 -7
-6 -17 -8 -23 -4 -6 4 -9 1 -8 -7 6 -25 -41 -19 -83 11 -23 17 -48 31 -54 31
-24 0 -26 33 -5 62 23 31 23 32 -5 16z m25 -258 c0 -4 -11 -5 -25 -2 -14 2
-25 8 -25 12 0 4 11 5 25 2 14 -2 25 -8 25 -12z M1405 1558 c-6 -18 0 -68 9
-69 3 0 12 2 19 4 9 4 9 6 0 6 -8 1 -10 13 -6 36 5 34 -12 51 -22 23z M2453
1519 c-20 -20 8 -72 34 -62 13 5 13 7 -1 15 -20 11 -20 22 0 42 14 15 14 16
-3 16 -11 0 -24 -5 -30 -11z M250 1515 c0 -3 2 -5 5 -5 3 0 5 2 5 5 0 3 -2 5
-5 5 -3 0 -5 -2 -5 -5z M280 1510 c0 -7 3 -10 7 -7 3 4 3 10 0 14 -4 3 -7 0
-7 -7z M2551 1506 c-15 -18 2 -25 45 -19 31 5 61 -16 36 -25 -7 -2 -12 -12
-12 -23 0 -14 7 -19 29 -19 17 0 33 -4 36 -10 10 -17 25 -11 25 9 0 11 -17 32
-40 49 -22 16 -37 32 -33 36 4 4 -6 6 -23 4 -16 -1 -35 1 -41 5 -6 4 -16 1
-22 -7z M1584 1478 c4 -47 27 -116 43 -129 7 -6 13 -21 13 -33 0 -41 18 -53
30 -21 13 34 -4 89 -53 168 -34 56 -36 57 -33 15z M1140 1495 c0 -3 2 -5 5 -5
3 0 5 2 5 5 0 3 -2 5 -5 5 -3 0 -5 -2 -5 -5z M280 1485 c0 -3 2 -5 5 -5 3 0 5
2 5 5 0 3 -2 5 -5 5 -3 0 -5 -2 -5 -5z M2520 1485 c0 -3 2 -5 5 -5 3 0 5 2 5
5 0 3 -2 5 -5 5 -3 0 -5 -2 -5 -5z M1121 1473 c1 -5 0 -10 -1 -13 -7 -16 -6
-71 1 -76 11 -7 17 10 22 59 3 26 0 37 -9 37 -8 0 -13 -3 -13 -7z M1430 1470
c0 -7 3 -10 7 -7 3 4 3 10 0 14 -4 3 -7 0 -7 -7z M1340 1415 c0 -3 2 -5 5 -5
3 0 5 2 5 5 0 3 -2 5 -5 5 -3 0 -5 -2 -5 -5z M1101 1321 c0 -26 5 -61 13 -76
8 -15 13 -45 11 -66 -2 -22 1 -39 6 -39 5 0 9 -8 9 -18 0 -11 9 -27 20 -37 19
-18 20 -17 20 3 0 11 -4 22 -9 24 -12 4 -21 88 -9 88 6 0 7 10 3 23 -3 12 -7
28 -7 36 -1 11 -4 11 -12 -1 -9 -13 -12 -8 -12 21 0 87 -30 125 -33 42z M1304
1244 c3 -9 6 -26 6 -39 0 -19 4 -23 22 -20 13 3 24 9 26 15 5 13 42 13 42 0 0
-5 5 -10 11 -10 5 0 7 5 3 12 -7 11 10 9 49 -7 10 -4 17 -3 17 4 0 15 -33 27
-88 34 -24 2 -49 10 -55 16 -17 17 -40 14 -33 -5z M920 1207 c0 -15 4 -27 9
-27 17 0 19 15 5 35 -13 18 -14 18 -14 -8z M1440 1175 c0 -3 2 -5 5 -5 3 0 5
2 5 5 0 3 -2 5 -5 5 -3 0 -5 -2 -5 -5z M896 1162 c-3 -6 -14 -8 -24 -5 -10 2
-46 -3 -79 -11 -34 -9 -77 -16 -97 -16 l-36 0 48 -51 c26 -29 65 -68 87 -88
22 -20 76 -73 120 -118 59 -60 92 -86 125 -97 62 -20 120 -44 153 -62 18 -10
39 -13 60 -9 48 9 180 56 197 70 8 7 33 22 55 33 24 13 33 21 22 22 -10 0 -16
4 -13 9 3 4 -6 6 -19 3 -14 -2 -25 -8 -25 -12 0 -10 -48 -30 -74 -30 -13 0
-50 13 -82 30 -68 34 -74 35 -74 15 0 -8 7 -15 15 -15 8 0 15 -4 15 -10 0 -5
6 -10 14 -10 12 0 26 -20 26 -36 0 -2 -13 -4 -29 -4 -16 0 -31 -5 -33 -11 -3
-8 -10 -6 -20 5 -10 9 -24 13 -34 9 -11 -4 -15 -3 -11 4 8 12 -20 39 -30 30
-3 -3 -21 0 -39 8 -18 7 -54 17 -80 21 -34 5 -48 12 -52 26 -3 11 -10 17 -18
14 -9 -3 -14 2 -14 14 0 11 -4 20 -10 20 -5 0 -10 6 -10 13 0 7 -13 27 -29 44
-16 18 -26 35 -22 38 3 4 1 5 -5 3 -6 -1 -30 14 -53 35 -39 36 -46 57 -17 57
7 0 23 9 36 20 13 12 29 19 36 16 13 -5 40 21 31 30 -3 3 -8 1 -11 -4z m-131
-52 c-3 -5 -11 -10 -16 -10 -6 0 -7 5 -4 10 3 6 11 10 16 10 6 0 7 -4 4 -10z
m155 -185 c0 -3 -2 -5 -5 -5 -3 0 -5 2 -5 5 0 3 2 5 5 5 3 0 5 -2 5 -5z M1220
1165 c0 -3 2 -5 5 -5 3 0 5 2 5 5 0 3 -2 5 -5 5 -3 0 -5 -2 -5 -5z M1395 1160
c3 -5 16 -10 28 -10 18 0 19 2 7 10 -20 13 -43 13 -35 0z M1897 1164 c-13 -14
-7 -39 28 -109 19 -38 35 -81 35 -95 1 -58 27 -125 49 -128 11 -2 21 1 21 6 0
6 2 17 6 25 3 10 -4 16 -25 20 -20 4 -31 13 -31 23 0 13 3 14 15 4 9 -8 15 -9
15 -2 0 6 -4 13 -10 17 -5 3 -6 13 -3 23 5 14 2 13 -11 -3 -17 -20 -17 -19
-13 9 5 32 -20 116 -34 116 -5 0 -9 15 -9 33 0 35 -21 73 -33 61z M645 1150
c-3 -5 -1 -10 4 -10 6 0 11 5 11 10 0 6 -2 10 -4 10 -3 0 -8 -4 -11 -10z M940
1153 c0 -5 5 -15 10 -23 8 -12 10 -11 10 8 0 12 -4 22 -10 22 -5 0 -10 -3 -10
-7z M1450 1150 c0 -5 4 -10 9 -10 6 0 13 5 16 10 3 6 -1 10 -9 10 -9 0 -16 -4
-16 -10z M1634 1145 c7 -19 -17 -71 -36 -78 -10 -4 -9 -8 2 -16 13 -9 13 -12
1 -20 -15 -10 -5 -35 10 -25 5 3 7 9 4 14 -3 4 6 11 20 14 14 4 25 11 25 18 0
6 11 26 25 43 21 29 22 35 10 51 -14 18 -14 18 -15 -1 -1 -17 -2 -18 -13 -5
-17 21 -41 25 -33 5z m13 -72 c-4 -3 -10 -3 -14 0 -3 4 0 7 7 7 7 0 10 -3 7
-7z m-12 -23 c3 -5 4 -10 1 -10 -3 0 -8 5 -11 10 -3 6 -4 10 -1 10 3 0 8 -4
11 -10z m-25 -35 c0 -3 -2 -5 -5 -5 -3 0 -5 2 -5 5 0 3 2 5 5 5 3 0 5 -2 5 -5z
M1770 1140 c0 -8 14 -37 30 -65 16 -27 30 -58 30 -67 0 -10 9 -22 19 -28 28
-14 36 -12 21 5 -7 8 -9 15 -4 15 5 0 -1 7 -13 15 -13 9 -27 32 -33 53 -11 41
-50 97 -50 72z M2700 1140 c0 -7 3 -10 7 -7 3 4 3 10 0 14 -4 3 -7 0 -7 -7z
M1226 1132 c-2 -4 -1 -14 5 -22 7 -12 9 -10 9 8 0 23 -5 28 -14 14z M2057
1108 c-10 -5 -17 -21 -17 -38 l0 -30 70 0 c49 0 79 5 96 16 25 17 25 17 4 31
-16 11 -24 12 -35 3 -10 -9 -16 -7 -23 6 -11 19 -70 27 -95 12z M1825 1100 c3
-5 8 -10 11 -10 3 0 2 5 -1 10 -3 6 -8 10 -11 10 -3 0 -2 -4 1 -10z M970 1095
c0 -3 2 -5 5 -5 3 0 5 2 5 5 0 3 -2 5 -5 5 -3 0 -5 -2 -5 -5z M1245 1090 c-3
-5 4 -14 15 -20 16 -8 20 -8 20 4 0 16 -27 29 -35 16z M1710 1096 c0 -2 7 -9
15 -16 13 -11 14 -10 9 4 -5 14 -24 23 -24 12z M1320 1030 c0 -5 5 -10 10 -10
6 0 10 5 10 10 0 6 -4 10 -10 10 -5 0 -10 -4 -10 -10z M1701 1024 c0 -11 3
-14 6 -6 3 7 2 16 -1 19 -3 4 -6 -2 -5 -13z M20 1014 c0 -12 4 -14 13 -7 6 6
19 13 27 16 9 3 3 6 -12 6 -20 1 -28 -4 -28 -15z M1730 1021 c0 -5 16 -21 35
-35 50 -39 33 -52 -20 -16 -53 36 -55 37 -55 5 0 -32 32 -50 93 -51 58 0 59 8
5 63 -41 42 -58 52 -58 34z M1443 1013 c4 -3 10 -3 14 0 3 4 0 7 -7 7 -7 0
-10 -3 -7 -7z M1646 993 c-9 -10 -7 -43 3 -43 11 0 21 39 11 45 -4 2 -10 2
-14 -2z M1467 966 c-9 -7 -28 -11 -42 -8 -14 2 -25 0 -25 -7 0 -5 -7 -8 -15
-5 -23 9 -18 -14 6 -27 14 -7 24 -7 28 -1 3 5 16 12 27 16 29 9 72 46 53 46
-8 0 -22 -7 -32 -14z M2168 953 c7 -3 16 -2 19 1 4 3 -2 6 -13 5 -11 0 -14 -3
-6 -6z M1865 930 c-6 -20 19 -80 35 -80 18 0 21 20 6 42 -9 12 -16 30 -16 40
0 24 -17 23 -25 -2z M2210 935 c7 -9 15 -13 17 -11 7 7 -7 26 -19 26 -6 0 -6
-6 2 -15z M1634 895 c-7 -26 -3 -105 16 -320 15 -178 26 -248 44 -284 25 -47
26 -37 9 59 -8 47 -18 150 -23 230 -19 300 -30 377 -46 315z M530 904 c0 -6 7
-19 16 -30 14 -18 14 -18 3 6 -14 31 -19 36 -19 24z M1840 881 c0 -6 4 -13 10
-16 6 -3 7 1 4 9 -7 18 -14 21 -14 7z M0 859 c0 -5 5 -7 10 -4 5 3 10 8 10 11
0 2 -4 4 -10 4 -5 0 -10 -5 -10 -11z M876 862 c-8 -13 41 -68 51 -58 4 3 -3
14 -14 23 -11 10 -22 25 -25 33 -3 10 -6 11 -12 2z M1470 855 c0 -3 2 -5 5 -5
3 0 5 2 5 5 0 3 -2 5 -5 5 -3 0 -5 -2 -5 -5z M1920 845 c0 -3 2 -5 5 -5 3 0 5
2 5 5 0 3 -2 5 -5 5 -3 0 -5 -2 -5 -5z M1920 810 c0 -12 50 -34 58 -25 8 8 -9
22 -35 30 -14 4 -23 2 -23 -5z M953 783 c4 -3 10 -3 14 0 3 4 0 7 -7 7 -7 0
-10 -3 -7 -7z M2470 775 c0 -3 2 -5 5 -5 3 0 5 2 5 5 0 3 -2 5 -5 5 -3 0 -5
-2 -5 -5z M841 750 c-53 -25 -170 -45 -204 -36 -16 4 -27 15 -30 29 -3 15 -5
11 -6 -12 0 -19 -9 -43 -18 -53 -17 -19 -16 -19 37 -11 30 4 70 7 88 7 17 0
32 3 32 8 0 5 11 6 25 2 19 -5 30 0 51 25 20 24 31 30 48 25 11 -4 29 -7 38
-6 10 0 21 -4 24 -10 5 -7 2 -8 -7 -4 -8 4 -5 0 6 -8 11 -9 25 -14 33 -11 7 2
11 1 8 -3 -3 -5 17 -15 45 -22 28 -8 52 -18 55 -22 3 -4 10 -8 15 -8 19 0 -72
80 -99 86 -15 4 -34 12 -42 19 -28 23 -55 25 -99 5z m49 -5 c0 -3 -2 -5 -5 -5
-3 0 -5 2 -5 5 0 3 2 5 5 5 3 0 5 -2 5 -5z M1050 715 c0 -3 2 -5 5 -5 3 0 5 2
5 5 0 3 -2 5 -5 5 -3 0 -5 -2 -5 -5z M1073 703 c4 -3 10 -3 14 0 3 4 0 7 -7 7
-7 0 -10 -3 -7 -7z M1100 705 c0 -3 2 -5 5 -5 3 0 5 2 5 5 0 3 -2 5 -5 5 -3 0
-5 -2 -5 -5z M1120 695 c0 -3 2 -5 5 -5 3 0 5 2 5 5 0 3 -2 5 -5 5 -3 0 -5 -2
-5 -5z M2011 678 c9 -17 9 -24 -5 -33 -9 -7 -16 -26 -16 -47 0 -19 -5 -39 -12
-46 -9 -9 -7 -12 10 -12 20 0 28 19 23 53 -3 17 10 5 19 -18 l10 -26 102 7
c95 6 119 10 107 16 -3 2 -32 29 -66 62 -52 50 -65 58 -87 52 -14 -3 -26 -12
-26 -20 0 -7 -6 -19 -14 -25 -12 -10 -17 -6 -27 23 -7 20 -17 36 -21 36 -5 0
-3 -10 3 -22z m59 -102 c0 -5 -7 -1 -15 10 -8 10 -14 24 -14 29 0 6 6 1 14 -9
8 -11 15 -24 15 -30z m30 19 c0 -3 -2 -5 -5 -5 -3 0 -5 2 -5 5 0 3 2 5 5 5 3
0 5 -2 5 -5z M2698 679 c-9 -31 -111 -183 -177 -264 -27 -33 -65 -90 -84 -126
-34 -64 -35 -68 -27 -134 5 -37 7 -73 5 -79 -2 -6 -6 -26 -9 -43 l-5 -33 52 0
c61 1 94 31 83 76 -6 21 -4 25 11 22 10 -2 17 -10 15 -16 -4 -19 13 -14 38 13
12 13 27 22 32 19 5 -3 6 6 2 20 -6 24 -4 26 30 26 20 0 36 5 36 10 0 6 -7 10
-15 10 -21 0 -19 37 5 67 11 14 20 35 20 47 0 19 -2 18 -25 -9 -14 -16 -39
-56 -55 -87 -34 -65 -50 -80 -50 -46 0 16 -3 19 -9 10 -6 -11 -10 -10 -16 5
-10 22 -9 35 7 88 13 40 19 50 50 85 9 10 14 27 11 38 -2 10 3 26 11 35 9 8
16 22 16 30 0 8 14 33 30 56 29 40 31 46 28 124 -2 55 -5 74 -10 56z m-141
-552 c-7 -21 -32 -13 -35 11 -3 21 -1 22 18 12 12 -6 19 -17 17 -23z M1150
665 c0 -3 2 -5 5 -5 3 0 5 2 5 5 0 3 -2 5 -5 5 -3 0 -5 -2 -5 -5z M1325 640
c3 -5 14 -10 23 -10 15 0 15 2 2 10 -20 13 -33 13 -25 0z M1110 625 c0 -3 2
-5 5 -5 3 0 5 2 5 5 0 3 -2 5 -5 5 -3 0 -5 -2 -5 -5z M2531 620 c0 -8 4 -22 9
-30 12 -18 12 -2 0 25 -6 13 -9 15 -9 5z M1376 605 c10 -8 25 -15 32 -15 6 0
12 -4 12 -9 0 -5 16 -15 35 -21 22 -7 48 -28 67 -53 43 -57 88 -94 88 -73 0 9
-7 16 -15 16 -8 0 -15 5 -15 11 0 20 -116 124 -134 121 -11 -3 -16 0 -12 7 4
7 -1 11 -13 11 -12 0 -21 5 -21 10 0 6 -10 10 -22 10 -21 0 -21 0 -2 -15z
M2663 403 c4 -3 10 -3 14 0 3 4 0 7 -7 7 -7 0 -10 -3 -7 -7z M2640 380 c0 -5
5 -10 11 -10 5 0 7 5 4 10 -3 6 -8 10 -11 10 -2 0 -4 -4 -4 -10z M2690 381 c0
-6 5 -13 10 -16 6 -3 10 1 10 9 0 9 -4 16 -10 16 -5 0 -10 -4 -10 -9z M320
215 c0 -3 2 -5 5 -5 3 0 5 2 5 5 0 3 -2 5 -5 5 -3 0 -5 -2 -5 -5z M340 191 c0
-6 4 -13 10 -16 6 -3 7 1 4 9 -7 18 -14 21 -14 7z M1775 123 c3 -31 25 -74 34
-69 5 4 12 -7 16 -24 4 -16 11 -30 16 -30 15 0 10 23 -16 65 -14 22 -28 48
-31 58 -4 9 -10 17 -14 17 -4 0 -6 -8 -5 -17z m32 -60 c-4 -3 -7 0 -7 7 0 7 3
10 7 7 3 -4 3 -10 0 -14z M390 110 c0 -7 3 -10 7 -7 3 4 3 10 0 14 -4 3 -7 0
-7 -7z M20 86 c0 -2 8 -10 18 -17 15 -13 16 -12 3 4 -13 16 -21 21 -21 13z
M2550 35 c0 -8 0 -18 0 -22 0 -5 36 -9 81 -11 95 -3 105 14 18 34 -73 18 -99
17 -99 -1z M280 5 c0 -3 2 -5 5 -5 3 0 5 2 5 5 0 3 -2 5 -5 5 -3 0 -5 -2 -5
-5z"/>
</g>
</svg>
